<?xml version="1.0" encoding="utf-8"?>
<!-- Generator: Adobe Illustrator 16.0.4, SVG Export Plug-In . SVG Version: 6.00 Build 0)  -->
<!DOCTYPE svg PUBLIC "-//W3C//DTD SVG 1.1//EN" "http://www.w3.org/Graphics/SVG/1.1/DTD/svg11.dtd">
<svg version="1.1" id="Layer_1" xmlns="http://www.w3.org/2000/svg" xmlns:xlink="http://www.w3.org/1999/xlink" x="0px" y="0px"
	 width="173.58px" height="173.582px" viewBox="0 0 173.58 173.582" enable-background="new 0 0 173.58 173.582"
	 xml:space="preserve">
<g>
	<circle fill="#4884DE" cx="86.791" cy="86.791" r="86.791"/>
	<polygon fill="#94D43B" points="120.428,54.867 115.928,39.583 64.021,54.867 	"/>
	<path fill="#8A7469" d="M130.816,119.296v-7.396h0.357l0.004-55.647c0-1.507-1.223-2.714-2.715-2.714H52.495
		c-1.043,0-2.048,0.177-2.984,0.53c-3.43,1.22-5.897,4.487-5.897,8.354v1.261c0,0.021,0.004,0.039,0.004,0.057v51.89
		c0,4.907,3.979,8.884,8.884,8.884h75.96c1.496,0,2.713-1.215,2.713-2.713v-2.504H130.816z"/>
	<path fill="#545454" d="M131.201,119.437H55.717c-2.102,0-3.808-1.708-3.808-3.808c0-2.103,1.706-3.809,3.808-3.809h75.484V119.437
		z"/>
</g>
</svg>
